<svg width="18" height="16" viewBox="0 0 18 16" fill="none" xmlns="http://www.w3.org/2000/svg">
<path d="M8.68936 10.5431L11.0976 8.13483L8.68936 5.72655C8.57313 5.61059 8.50781 5.45315 8.50781 5.28897C8.50781 5.12478 8.57313 4.96735 8.68936 4.85138C8.93142 4.60931 9.32246 4.60931 9.56453 4.85138L12.4135 7.70035C12.6556 7.94242 12.6556 8.33345 12.4135 8.57552L9.56453 11.4245C9.32246 11.6666 8.93142 11.6666 8.68936 11.4245C8.45349 11.1824 8.44729 10.7852 8.68936 10.5431Z" fill="black" fill-opacity="0.54"/>
<path d="M5.58621 10.5431L7.99448 8.13483L5.58621 5.72655C5.46998 5.61059 5.40466 5.45315 5.40466 5.28897C5.40466 5.12478 5.46998 4.96735 5.58621 4.85138C5.82827 4.60931 6.21931 4.60931 6.46138 4.85138L9.31034 7.70035C9.55241 7.94242 9.55241 8.33345 9.31034 8.57552L6.46138 11.4245C6.21931 11.6666 5.82827 11.6666 5.58621 11.4245C5.35034 11.1824 5.34414 10.7852 5.58621 10.5431Z" fill="black" fill-opacity="0.54"/>
</svg>
