<svg width="24" height="24" viewBox="0 0 24 24" fill="none" xmlns="http://www.w3.org/2000/svg">
<g id="icon/action/add_shopping_cart_24px">
<path id="icon/action/add_shopping_cart_24px_2" fill-rule="evenodd" clip-rule="evenodd" d="M14.0967 8.5C14.0967 9.05 13.6467 9.5 13.0967 9.5C12.5467 9.5 12.0967 9.05 12.0967 8.5V6.5H10.0967C9.54668 6.5 9.09668 6.05 9.09668 5.5C9.09668 4.95 9.54668 4.5 10.0967 4.5H12.0967V2.5C12.0967 1.95 12.5467 1.5 13.0967 1.5C13.6467 1.5 14.0967 1.95 14.0967 2.5V4.5H16.0967C16.6467 4.5 17.0967 4.95 17.0967 5.5C17.0967 6.05 16.6467 6.5 16.0967 6.5H14.0967V8.5ZM6.10668 20.5C6.10668 19.4 6.99668 18.5 8.09668 18.5C9.19668 18.5 10.0967 19.4 10.0967 20.5C10.0967 21.6 9.19668 22.5 8.09668 22.5C6.99668 22.5 6.10668 21.6 6.10668 20.5ZM18.0967 18.5C16.9967 18.5 16.1067 19.4 16.1067 20.5C16.1067 21.6 16.9967 22.5 18.0967 22.5C19.1967 22.5 20.0967 21.6 20.0967 20.5C20.0967 19.4 19.1967 18.5 18.0967 18.5ZM16.6467 13.5H9.19668L8.09668 15.5H19.0967C19.6467 15.5 20.0967 15.95 20.0967 16.5C20.0967 17.05 19.6467 17.5 19.0967 17.5H8.09668C6.57668 17.5 5.61668 15.87 6.34668 14.53L7.69668 12.09L4.09668 4.5H3.09668C2.54668 4.5 2.09668 4.05 2.09668 3.5C2.09668 2.95 2.54668 2.5 3.09668 2.5H4.73668C5.11668 2.5 5.47668 2.72 5.63668 3.07L9.62668 11.5H16.6467L20.0367 5.37C20.2967 4.89 20.9067 4.72 21.3867 4.98C21.8667 5.25 22.0467 5.86 21.7767 6.34L18.3967 12.47C18.0567 13.09 17.3967 13.5 16.6467 13.5Z" fill="white"/>
</g>
</svg>
