<svg xmlns="http://www.w3.org/2000/svg" xmlns:xlink="http://www.w3.org/1999/xlink" width="200" zoomAndPan="magnify" viewBox="0 0 150 149.999998" height="200" preserveAspectRatio="xMidYMid meet" version="1.0"><defs><clipPath id="74f168e97e"><path d="M 6 34.71875 L 77 34.71875 L 77 82.632812 L 6 82.632812 Z M 6 34.71875 " clip-rule="nonzero"/></clipPath><clipPath id="3e9977b579"><path d="M 26.148438 78.773438 C 30.523438 79.949219 35.191406 80.800781 40.429688 81.386719 C 46.875 82.113281 53.390625 82.332031 59.46875 82.453125 C 60.148438 82.453125 61.4375 82.46875 62.808594 82.46875 L 67.929688 82.46875 C 68.085938 82.46875 68.246094 82.382812 68.328125 82.234375 L 76.777344 68.171875 C 76.863281 68.027344 76.863281 67.855469 76.789062 67.699219 C 76.71875 67.539062 76.558594 67.464844 76.390625 67.453125 C 73.789062 67.394531 70.761719 67.34375 67.550781 67.296875 C 59.746094 67.175781 50.910156 67.042969 46.449219 66.628906 C 45.695312 66.554688 43.289062 66.179688 41.78125 65.777344 C 39.554688 65.179688 38 64.402344 36.882812 63.320312 C 36.296875 62.75 35.554688 61.824219 35.363281 60.609375 C 35.132812 59.25 35.679688 57.707031 36.808594 56.5 C 37.71875 55.527344 38.960938 54.75 40.722656 54.035156 C 45 52.320312 49.695312 51.957031 53.753906 51.75 C 53.914062 51.738281 54.058594 51.652344 54.132812 51.53125 C 54.933594 50.21875 60.621094 40.734375 62.980469 36.808594 L 63.671875 35.652344 C 63.757812 35.507812 63.757812 35.324219 63.671875 35.167969 C 63.589844 35.007812 63.429688 34.925781 63.25 34.9375 C 50.617188 35.558594 36.03125 36.652344 22.851562 41.964844 C 17.40625 44.164062 13.554688 46.582031 10.746094 49.597656 C 7.195312 53.402344 5.496094 58.253906 6.210938 62.578125 C 6.84375 66.421875 9.164062 69.351562 11 71.125 C 14.476562 74.492188 19.28125 76.925781 26.125 78.757812 " clip-rule="nonzero"/></clipPath><clipPath id="479295c7e1"><path d="M 84.378906 26.664062 L 133.988281 26.664062 L 133.988281 65 L 84.378906 65 Z M 84.378906 26.664062 " clip-rule="nonzero"/></clipPath><clipPath id="124b7065bd"><path d="M 84.535156 63.453125 C 84.617188 63.601562 84.777344 63.6875 84.933594 63.6875 C 84.933594 63.6875 89.917969 63.6875 90.648438 63.6875 C 96.824219 63.820312 103.449219 64.039062 110.023438 64.78125 L 111.046875 64.902344 C 111.058594 64.902344 111.082031 64.902344 111.09375 64.902344 C 111.265625 64.902344 111.410156 64.816406 111.496094 64.671875 L 133.800781 27.523438 C 133.886719 27.375 133.886719 27.195312 133.8125 27.046875 C 133.742188 26.902344 133.570312 26.804688 133.402344 26.804688 L 106.511719 26.804688 C 106.339844 26.804688 106.195312 26.890625 106.109375 27.035156 L 84.535156 62.980469 C 84.449219 63.125 84.449219 63.308594 84.535156 63.453125 " clip-rule="nonzero"/></clipPath><clipPath id="2d8778e84c"><path d="M 52.152344 26.664062 L 101.339844 26.664062 L 101.339844 63.976562 L 52.152344 63.976562 Z M 52.152344 26.664062 " clip-rule="nonzero"/></clipPath><clipPath id="1404e69bdb"><path d="M 52.269531 62.945312 C 52.355469 63.089844 52.503906 63.1875 52.660156 63.1875 C 57.0625 63.34375 62.738281 63.441406 67.734375 63.515625 L 68.027344 63.515625 C 71.1875 63.5625 74.433594 63.613281 77.140625 63.6875 L 79.234375 63.734375 C 79.234375 63.734375 79.246094 63.734375 79.246094 63.734375 C 79.414062 63.734375 79.5625 63.648438 79.648438 63.503906 L 101.246094 27.507812 C 101.332031 27.363281 101.332031 27.179688 101.261719 27.035156 C 101.1875 26.890625 101.015625 26.804688 100.847656 26.804688 L 73.945312 26.804688 C 73.773438 26.804688 73.628906 26.890625 73.542969 27.035156 L 52.285156 62.484375 C 52.199219 62.628906 52.199219 62.796875 52.269531 62.945312 " clip-rule="nonzero"/></clipPath><clipPath id="b19fb7f556"><path d="M 73 67.367188 L 144 67.367188 L 144 115.28125 L 73 115.28125 Z M 73 67.367188 " clip-rule="nonzero"/></clipPath><clipPath id="69a9e982c8"><path d="M 109.5625 68.609375 C 103.132812 67.878906 96.617188 67.660156 90.515625 67.539062 C 89.871094 67.539062 88.691406 67.527344 87.402344 67.527344 L 82.042969 67.527344 C 81.871094 67.527344 81.726562 67.613281 81.640625 67.757812 L 73.203125 81.835938 C 73.117188 81.980469 73.117188 82.164062 73.191406 82.308594 C 73.265625 82.453125 73.421875 82.539062 73.59375 82.550781 C 76.183594 82.613281 79.210938 82.660156 82.429688 82.710938 C 90.234375 82.832031 99.070312 82.964844 103.535156 83.378906 C 104.285156 83.441406 106.695312 83.828125 108.203125 84.230469 C 110.425781 84.824219 111.980469 85.601562 113.101562 86.683594 C 113.683594 87.257812 114.425781 88.179688 114.621094 89.394531 C 114.839844 90.757812 114.304688 92.300781 113.171875 93.503906 C 112.273438 94.476562 111.023438 95.253906 109.257812 95.972656 C 104.980469 97.6875 100.289062 98.050781 96.226562 98.257812 C 96.070312 98.257812 95.9375 98.34375 95.851562 98.476562 C 95.609375 98.867188 93.46875 102.425781 91.269531 106.097656 C 89.042969 109.78125 86.757812 113.585938 86.296875 114.363281 C 86.210938 114.511719 86.210938 114.703125 86.296875 114.851562 C 86.382812 114.996094 86.527344 115.082031 86.695312 115.082031 L 86.722656 115.082031 C 99.363281 114.460938 113.964844 113.367188 127.140625 108.054688 C 132.585938 105.867188 136.425781 103.4375 139.246094 100.421875 C 142.808594 96.617188 144.5 91.765625 143.78125 87.4375 C 143.148438 83.597656 140.828125 80.667969 139.003906 78.894531 C 135.527344 75.527344 130.726562 73.09375 123.882812 71.257812 C 119.519531 70.078125 114.839844 69.230469 109.597656 68.644531 " clip-rule="nonzero"/></clipPath><clipPath id="06845483fd"><path d="M 48.335938 86.023438 L 97.945312 86.023438 L 97.945312 123.335938 L 48.335938 123.335938 Z M 48.335938 86.023438 " clip-rule="nonzero"/></clipPath><clipPath id="4dc57f9ab9"><path d="M 49.171875 123.191406 L 75.976562 123.191406 C 76.144531 123.191406 76.292969 123.105469 76.375 122.960938 L 97.722656 87.511719 C 97.808594 87.367188 97.808594 87.195312 97.734375 87.050781 C 97.660156 86.902344 97.503906 86.808594 97.347656 86.808594 C 92.910156 86.648438 87.269531 86.550781 82.273438 86.480469 L 82.089844 86.480469 C 78.722656 86.429688 75.539062 86.382812 72.851562 86.308594 L 70.773438 86.261719 L 70.761719 86.261719 C 70.589844 86.261719 70.445312 86.34375 70.359375 86.492188 L 48.769531 122.484375 C 48.683594 122.628906 48.683594 122.8125 48.769531 122.960938 C 48.855469 123.105469 49 123.203125 49.171875 123.203125 " clip-rule="nonzero"/></clipPath><clipPath id="340cf55887"><path d="M 16.113281 85 L 65.722656 85 L 65.722656 123.335938 L 16.113281 123.335938 Z M 16.113281 85 " clip-rule="nonzero"/></clipPath><clipPath id="5204ee86c5"><path d="M 65.507812 86.539062 C 65.425781 86.394531 65.265625 86.296875 65.109375 86.296875 C 65.109375 86.296875 60.085938 86.296875 59.359375 86.296875 C 53.183594 86.164062 46.558594 85.945312 39.980469 85.203125 L 38.996094 85.082031 C 38.789062 85.054688 38.632812 85.140625 38.535156 85.300781 L 16.203125 122.484375 C 16.117188 122.628906 16.117188 122.8125 16.191406 122.960938 C 16.265625 123.105469 16.433594 123.203125 16.605469 123.203125 L 43.507812 123.203125 C 43.664062 123.203125 43.824219 123.117188 43.90625 122.972656 L 65.496094 87 C 65.582031 86.855469 65.582031 86.671875 65.496094 86.527344 " clip-rule="nonzero"/></clipPath></defs><g clip-path="url(#74f168e97e)"><g clip-path="url(#3e9977b579)"><path fill="#f05725" d="M 0 20.726562 L 150.097656 20.726562 L 150.097656 129.273438 L 0 129.273438 Z M 0 20.726562 " fill-opacity="1" fill-rule="nonzero"/></g></g><g clip-path="url(#479295c7e1)"><g clip-path="url(#124b7065bd)"><path fill="#f05725" d="M 0 20.726562 L 150.097656 20.726562 L 150.097656 129.273438 L 0 129.273438 Z M 0 20.726562 " fill-opacity="1" fill-rule="nonzero"/></g></g><g clip-path="url(#2d8778e84c)"><g clip-path="url(#1404e69bdb)"><path fill="#f05725" d="M 0 20.726562 L 150.097656 20.726562 L 150.097656 129.273438 L 0 129.273438 Z M 0 20.726562 " fill-opacity="1" fill-rule="nonzero"/></g></g><g clip-path="url(#b19fb7f556)"><g clip-path="url(#69a9e982c8)"><path fill="#393088" d="M 0 20.726562 L 150.097656 20.726562 L 150.097656 129.273438 L 0 129.273438 Z M 0 20.726562 " fill-opacity="1" fill-rule="nonzero"/></g></g><g clip-path="url(#06845483fd)"><g clip-path="url(#4dc57f9ab9)"><path fill="#393088" d="M 0 20.726562 L 150.097656 20.726562 L 150.097656 129.273438 L 0 129.273438 Z M 0 20.726562 " fill-opacity="1" fill-rule="nonzero"/></g></g><g clip-path="url(#340cf55887)"><g clip-path="url(#5204ee86c5)"><path fill="#393088" d="M 0 20.726562 L 150.097656 20.726562 L 150.097656 129.273438 L 0 129.273438 Z M 0 20.726562 " fill-opacity="1" fill-rule="nonzero"/></g></g></svg>