<svg xmlns="http://www.w3.org/2000/svg" xmlns:xlink="http://www.w3.org/1999/xlink" width="270" zoomAndPan="magnify" viewBox="0 0 202.5 37.5" height="50" preserveAspectRatio="xMidYMid meet" version="1.0"><defs><clipPath id="a49f4a213c"><path d="M 2.246094 7.121094 L 22.375 7.121094 L 22.375 20.660156 L 2.246094 20.660156 Z M 2.246094 7.121094 " clip-rule="nonzero"/></clipPath><clipPath id="a12abd49f6"><path d="M 7.957031 19.570312 C 9.195312 19.902344 10.511719 20.140625 11.992188 20.308594 C 13.8125 20.511719 15.65625 20.574219 17.371094 20.609375 C 17.566406 20.609375 17.929688 20.613281 18.316406 20.613281 L 19.761719 20.613281 C 19.808594 20.613281 19.851562 20.589844 19.875 20.546875 L 22.261719 16.574219 C 22.289062 16.53125 22.289062 16.484375 22.265625 16.441406 C 22.246094 16.394531 22.203125 16.375 22.152344 16.371094 C 21.417969 16.355469 20.5625 16.339844 19.65625 16.328125 C 17.453125 16.292969 14.953125 16.253906 13.695312 16.136719 C 13.480469 16.117188 12.800781 16.011719 12.375 15.898438 C 11.746094 15.730469 11.304688 15.507812 10.992188 15.203125 C 10.824219 15.042969 10.617188 14.78125 10.5625 14.4375 C 10.496094 14.054688 10.652344 13.617188 10.96875 13.277344 C 11.226562 13 11.578125 12.78125 12.074219 12.578125 C 13.285156 12.09375 14.609375 11.992188 15.757812 11.933594 C 15.800781 11.929688 15.84375 11.90625 15.863281 11.871094 C 16.089844 11.5 17.699219 8.820312 18.363281 7.710938 L 18.5625 7.386719 C 18.585938 7.34375 18.585938 7.292969 18.5625 7.25 C 18.535156 7.203125 18.492188 7.179688 18.441406 7.183594 C 14.871094 7.359375 10.75 7.667969 7.027344 9.167969 C 5.488281 9.789062 4.398438 10.472656 3.605469 11.324219 C 2.601562 12.402344 2.121094 13.769531 2.324219 14.992188 C 2.503906 16.078125 3.160156 16.90625 3.679688 17.410156 C 4.660156 18.359375 6.015625 19.046875 7.949219 19.566406 " clip-rule="nonzero"/></clipPath><clipPath id="0414acd5ea"><path d="M 24.410156 4.84375 L 38.425781 4.84375 L 38.425781 15.746094 L 24.410156 15.746094 Z M 24.410156 4.84375 " clip-rule="nonzero"/></clipPath><clipPath id="9f65548356"><path d="M 24.453125 15.242188 C 24.480469 15.28125 24.523438 15.304688 24.566406 15.304688 C 24.566406 15.304688 25.976562 15.304688 26.183594 15.304688 C 27.925781 15.34375 29.800781 15.40625 31.65625 15.617188 L 31.945312 15.648438 C 31.949219 15.648438 31.957031 15.648438 31.960938 15.648438 C 32.007812 15.648438 32.046875 15.625 32.074219 15.585938 L 38.375 5.089844 C 38.398438 5.046875 38.398438 4.996094 38.378906 4.953125 C 38.359375 4.914062 38.308594 4.886719 38.261719 4.886719 L 30.664062 4.886719 C 30.617188 4.886719 30.574219 4.910156 30.550781 4.949219 L 24.453125 15.105469 C 24.429688 15.148438 24.429688 15.199219 24.453125 15.242188 " clip-rule="nonzero"/></clipPath><clipPath id="911bf258f6"><path d="M 15.304688 4.84375 L 29.203125 4.84375 L 29.203125 15.386719 L 15.304688 15.386719 Z M 15.304688 4.84375 " clip-rule="nonzero"/></clipPath><clipPath id="b53a7e1ba0"><path d="M 15.339844 15.097656 C 15.363281 15.136719 15.402344 15.164062 15.449219 15.164062 C 16.691406 15.210938 18.296875 15.238281 19.707031 15.257812 L 19.789062 15.257812 C 20.683594 15.273438 21.601562 15.285156 22.367188 15.304688 L 22.957031 15.320312 C 22.957031 15.320312 22.960938 15.320312 22.960938 15.320312 C 23.007812 15.320312 23.050781 15.296875 23.074219 15.253906 L 29.175781 5.085938 C 29.203125 5.042969 29.203125 4.992188 29.179688 4.949219 C 29.160156 4.910156 29.113281 4.886719 29.0625 4.886719 L 21.464844 4.886719 C 21.414062 4.886719 21.375 4.910156 21.347656 4.949219 L 15.34375 14.964844 C 15.316406 15.007812 15.316406 15.054688 15.339844 15.097656 " clip-rule="nonzero"/></clipPath><clipPath id="694738c31f"><path d="M 21.175781 16.347656 L 41.304688 16.347656 L 41.304688 29.882812 L 21.175781 29.882812 Z M 21.175781 16.347656 " clip-rule="nonzero"/></clipPath><clipPath id="d133be4966"><path d="M 31.527344 16.699219 C 29.710938 16.492188 27.867188 16.429688 26.144531 16.394531 C 25.960938 16.394531 25.628906 16.390625 25.265625 16.390625 L 23.75 16.390625 C 23.703125 16.390625 23.660156 16.414062 23.636719 16.457031 L 21.253906 20.433594 C 21.230469 20.476562 21.230469 20.527344 21.25 20.570312 C 21.269531 20.609375 21.316406 20.632812 21.363281 20.636719 C 22.09375 20.65625 22.949219 20.667969 23.859375 20.683594 C 26.066406 20.714844 28.5625 20.753906 29.824219 20.871094 C 30.035156 20.886719 30.714844 20.996094 31.140625 21.109375 C 31.769531 21.28125 32.210938 21.5 32.527344 21.804688 C 32.691406 21.964844 32.902344 22.226562 32.957031 22.570312 C 33.015625 22.957031 32.867188 23.390625 32.546875 23.730469 C 32.292969 24.007812 31.9375 24.226562 31.441406 24.429688 C 30.230469 24.914062 28.90625 25.015625 27.757812 25.074219 C 27.714844 25.074219 27.675781 25.097656 27.652344 25.136719 C 27.582031 25.246094 26.980469 26.253906 26.355469 27.289062 C 25.730469 28.332031 25.082031 29.40625 24.953125 29.625 C 24.929688 29.667969 24.929688 29.722656 24.953125 29.761719 C 24.976562 29.804688 25.019531 29.828125 25.066406 29.828125 L 25.074219 29.828125 C 28.644531 29.652344 32.769531 29.34375 36.492188 27.84375 C 38.03125 27.226562 39.117188 26.539062 39.914062 25.6875 C 40.921875 24.609375 41.398438 23.242188 41.195312 22.019531 C 41.015625 20.933594 40.359375 20.105469 39.84375 19.601562 C 38.863281 18.652344 37.507812 17.964844 35.574219 17.445312 C 34.339844 17.113281 33.015625 16.871094 31.535156 16.707031 " clip-rule="nonzero"/></clipPath><clipPath id="8e26a91fa7"><path d="M 14.226562 21.617188 L 28.246094 21.617188 L 28.246094 32.160156 L 14.226562 32.160156 Z M 14.226562 21.617188 " clip-rule="nonzero"/></clipPath><clipPath id="9a99ff9489"><path d="M 14.464844 32.121094 L 22.035156 32.121094 C 22.085938 32.121094 22.125 32.09375 22.148438 32.054688 L 28.179688 22.039062 C 28.207031 21.996094 28.207031 21.949219 28.183594 21.90625 C 28.164062 21.867188 28.121094 21.839844 28.074219 21.839844 C 26.820312 21.792969 25.226562 21.765625 23.816406 21.746094 L 23.765625 21.746094 C 22.8125 21.734375 21.914062 21.71875 21.152344 21.699219 L 20.566406 21.683594 L 20.5625 21.683594 C 20.515625 21.683594 20.472656 21.707031 20.449219 21.75 L 14.351562 31.921875 C 14.324219 31.960938 14.324219 32.011719 14.351562 32.054688 C 14.375 32.09375 14.414062 32.121094 14.464844 32.121094 " clip-rule="nonzero"/></clipPath><clipPath id="06b4b996ea"><path d="M 5.121094 21.257812 L 19.140625 21.257812 L 19.140625 32.160156 L 5.121094 32.160156 Z M 5.121094 21.257812 " clip-rule="nonzero"/></clipPath><clipPath id="f97b6fa4c7"><path d="M 19.078125 21.765625 C 19.054688 21.722656 19.011719 21.695312 18.964844 21.695312 C 18.964844 21.695312 17.546875 21.695312 17.339844 21.695312 C 15.597656 21.65625 13.722656 21.59375 11.867188 21.386719 L 11.589844 21.351562 C 11.53125 21.34375 11.484375 21.367188 11.457031 21.414062 L 5.148438 31.921875 C 5.125 31.960938 5.125 32.011719 5.144531 32.054688 C 5.164062 32.09375 5.214844 32.121094 5.261719 32.121094 L 12.863281 32.121094 C 12.90625 32.121094 12.953125 32.097656 12.976562 32.058594 L 19.074219 21.894531 C 19.101562 21.851562 19.101562 21.800781 19.074219 21.761719 " clip-rule="nonzero"/></clipPath><clipPath id="a4b192d495"><path d="M 47.636719 7.5625 L 200 7.5625 L 200 29.527344 L 47.636719 29.527344 Z M 47.636719 7.5625 " clip-rule="nonzero"/></clipPath><clipPath id="82fc016f92"><path d="M 196.917969 19.992188 C 196.140625 19.675781 194.394531 19.265625 191.5625 18.753906 C 189.660156 18.410156 188.980469 17.941406 188.980469 17.613281 C 188.980469 17.289062 189.105469 17.046875 189.355469 16.855469 C 189.738281 16.578125 190.457031 16.421875 191.503906 16.421875 C 192.578125 16.421875 193.316406 16.605469 193.742188 16.96875 C 193.988281 17.191406 194.171875 17.566406 194.296875 18.132812 C 194.335938 18.296875 194.488281 18.417969 194.660156 18.417969 L 199.066406 18.417969 C 199.164062 18.417969 199.257812 18.382812 199.328125 18.3125 C 199.394531 18.246094 199.433594 18.152344 199.433594 18.046875 C 199.414062 16.03125 198.453125 14.582031 196.589844 13.726562 C 195.296875 13.121094 193.492188 12.824219 191.246094 12.824219 C 188.671875 12.824219 186.722656 13.429688 185.445312 14.617188 C 184.410156 15.558594 183.890625 16.769531 183.890625 18.1875 C 183.890625 19.945312 184.910156 21.25 186.914062 22.058594 C 187.578125 22.335938 189.304688 22.738281 192.195312 23.277344 C 194.5 23.726562 194.75 24.265625 194.75 24.476562 C 194.75 24.785156 194.59375 25.042969 194.269531 25.273438 C 193.816406 25.609375 193.085938 25.78125 192.089844 25.78125 C 190.839844 25.78125 189.863281 25.570312 189.265625 25.15625 C 188.816406 24.871094 188.585938 24.46875 188.578125 23.910156 C 188.566406 23.707031 188.402344 23.546875 188.203125 23.546875 L 183.605469 23.546875 C 183.507812 23.546875 183.410156 23.582031 183.335938 23.660156 C 183.257812 23.738281 183.230469 23.824219 183.230469 23.929688 C 183.257812 25.867188 184.226562 27.328125 186.128906 28.277344 C 187.625 29.015625 189.585938 29.402344 191.964844 29.402344 C 193.902344 29.402344 195.601562 29.066406 196.996094 28.394531 C 198.960938 27.453125 199.960938 25.925781 199.960938 23.851562 C 199.960938 22.117188 198.933594 20.820312 196.917969 20.011719 M 180.582031 13.21875 L 176.125 13.21875 C 175.925781 13.21875 175.761719 13.378906 175.761719 13.582031 L 175.761719 22.257812 C 175.761719 23.410156 175.398438 24.246094 174.65625 24.804688 C 174.082031 25.234375 173.351562 25.457031 172.5 25.457031 C 171.671875 25.457031 171.039062 25.300781 170.605469 24.996094 C 170.058594 24.601562 169.78125 23.910156 169.78125 22.941406 L 169.78125 13.582031 C 169.78125 13.378906 169.617188 13.21875 169.417969 13.21875 L 164.945312 13.21875 C 164.742188 13.21875 164.578125 13.378906 164.578125 13.582031 L 164.578125 23.515625 C 164.578125 25.484375 165.183594 26.992188 166.363281 27.988281 C 167.441406 28.941406 168.957031 29.417969 170.867188 29.417969 C 173.035156 29.417969 174.753906 28.738281 175.964844 27.402344 L 175.964844 28.640625 C 175.964844 28.84375 176.125 29.007812 176.328125 29.007812 L 180.589844 29.007812 C 180.792969 29.007812 180.953125 28.84375 180.953125 28.640625 L 180.953125 13.582031 C 180.953125 13.378906 180.792969 13.21875 180.589844 13.21875 M 159.789062 7.773438 L 155.316406 7.773438 C 155.113281 7.773438 154.941406 7.9375 154.941406 8.140625 L 154.941406 29.054688 C 154.941406 29.257812 155.105469 29.417969 155.316406 29.417969 L 159.789062 29.417969 C 159.992188 29.417969 160.15625 29.257812 160.15625 29.054688 L 160.15625 8.140625 C 160.15625 7.9375 159.992188 7.773438 159.789062 7.773438 M 137.710938 17.574219 L 142.023438 17.574219 C 143.480469 17.574219 144.480469 17.179688 144.988281 16.402344 C 145.265625 15.980469 145.402344 15.367188 145.402344 14.570312 C 145.402344 13.660156 145.105469 13.015625 144.507812 12.613281 C 143.882812 12.191406 142.828125 11.980469 141.359375 11.980469 L 137.722656 11.980469 Z M 148.886719 9.65625 C 150.25 10.902344 150.941406 12.640625 150.941406 14.820312 C 150.941406 16.355469 150.460938 17.777344 149.5 19.035156 C 148.109375 20.867188 145.949219 21.808594 143.070312 21.808594 L 137.710938 21.808594 L 137.710938 29.066406 C 137.710938 29.265625 137.550781 29.429688 137.347656 29.429688 L 132.558594 29.429688 C 132.355469 29.429688 132.191406 29.265625 132.191406 29.066406 L 132.191406 8.140625 C 132.191406 7.9375 132.355469 7.773438 132.558594 7.773438 L 143.269531 7.773438 C 145.640625 7.773438 147.53125 8.410156 148.894531 9.65625 M 120.769531 12.824219 C 119.550781 12.824219 118.429688 13.074219 117.441406 13.554688 C 116.824219 13.859375 116.316406 14.207031 115.941406 14.597656 L 115.941406 8.140625 C 115.941406 7.9375 115.78125 7.773438 115.566406 7.773438 L 111.09375 7.773438 C 110.894531 7.773438 110.722656 7.9375 110.722656 8.140625 L 110.722656 29.054688 C 110.722656 29.257812 110.882812 29.417969 111.09375 29.417969 L 115.566406 29.417969 C 115.769531 29.417969 115.941406 29.257812 115.941406 29.054688 L 115.941406 20.148438 C 115.941406 19.109375 116.257812 18.296875 116.875 17.730469 C 117.488281 17.164062 118.292969 16.863281 119.265625 16.863281 C 120.414062 16.863281 121.175781 17.179688 121.578125 17.835938 C 121.808594 18.207031 121.921875 18.832031 121.921875 19.621094 L 121.921875 29.054688 C 121.921875 29.257812 122.085938 29.417969 122.296875 29.417969 L 126.769531 29.417969 C 126.972656 29.417969 127.144531 29.257812 127.144531 29.054688 L 127.144531 18.324219 C 127.144531 16.558594 126.519531 15.15625 125.292969 14.167969 C 124.160156 13.265625 122.644531 12.8125 120.78125 12.8125 M 104.328125 19.964844 C 103.550781 19.648438 101.792969 19.246094 98.960938 18.726562 C 96.628906 18.304688 96.378906 17.785156 96.378906 17.585938 C 96.378906 17.269531 96.503906 17.019531 96.753906 16.835938 C 97.140625 16.546875 97.859375 16.414062 98.90625 16.414062 C 99.988281 16.414062 100.71875 16.597656 101.140625 16.960938 C 101.390625 17.179688 101.574219 17.554688 101.699219 18.101562 C 101.738281 18.277344 101.890625 18.390625 102.0625 18.390625 L 106.46875 18.390625 C 106.574219 18.390625 106.660156 18.351562 106.726562 18.285156 C 106.796875 18.21875 106.832031 18.121094 106.832031 18.015625 C 106.804688 16.011719 105.855469 14.5625 103.992188 13.707031 C 102.6875 13.113281 100.890625 12.804688 98.644531 12.804688 C 96.074219 12.804688 94.125 13.410156 92.847656 14.589844 C 91.8125 15.53125 91.292969 16.730469 91.292969 18.152344 C 91.292969 19.898438 92.3125 21.203125 94.316406 22 C 94.96875 22.277344 96.707031 22.671875 99.597656 23.210938 C 101.898438 23.660156 102.148438 24.199219 102.148438 24.410156 C 102.148438 24.707031 101.996094 24.964844 101.667969 25.207031 C 101.226562 25.542969 100.488281 25.714844 99.492188 25.714844 C 98.234375 25.714844 97.261719 25.503906 96.660156 25.089844 C 96.207031 24.804688 95.976562 24.398438 95.96875 23.851562 C 95.96875 23.652344 95.804688 23.488281 95.601562 23.488281 L 91.015625 23.488281 C 90.917969 23.488281 90.824219 23.527344 90.753906 23.59375 C 90.6875 23.660156 90.648438 23.757812 90.648438 23.863281 C 90.679688 25.792969 91.648438 27.25 93.539062 28.191406 C 95.027344 28.929688 96.996094 29.304688 99.375 29.304688 C 101.3125 29.304688 103.011719 28.96875 104.40625 28.304688 C 106.371094 27.367188 107.371094 25.847656 107.371094 23.785156 C 107.371094 22.046875 106.34375 20.761719 104.328125 19.964844 M 81.992188 22.039062 C 81.550781 22.164062 80.832031 22.289062 79.792969 22.433594 C 78.835938 22.566406 78.144531 22.757812 77.75 23 C 77.210938 23.316406 76.960938 23.785156 76.960938 24.4375 C 76.960938 24.964844 77.152344 25.351562 77.558594 25.617188 C 77.902344 25.859375 78.304688 25.972656 78.765625 25.972656 C 79.785156 25.972656 80.695312 25.714844 81.484375 25.195312 C 82.242188 24.699219 82.617188 24.054688 82.617188 23.238281 L 82.617188 21.828125 C 82.433594 21.914062 82.230469 21.980469 82 22.046875 M 88.75 28.171875 L 88.75 28.671875 C 88.75 28.871094 88.585938 29.046875 88.375 29.046875 L 83.488281 29.046875 C 83.328125 29.046875 83.191406 28.941406 83.144531 28.796875 C 82.992188 28.335938 82.875 27.988281 82.828125 27.828125 C 82.808594 27.757812 82.789062 27.664062 82.777344 27.566406 C 82.222656 28.027344 81.675781 28.394531 81.136719 28.652344 C 80.054688 29.191406 78.796875 29.46875 77.394531 29.46875 C 75.867188 29.46875 74.582031 29.101562 73.574219 28.375 C 72.375 27.519531 71.761719 26.28125 71.761719 24.699219 C 71.761719 23.210938 72.289062 21.992188 73.324219 21.070312 C 74.207031 20.28125 75.484375 19.761719 77.097656 19.542969 L 81.234375 18.996094 C 81.914062 18.890625 82.222656 18.746094 82.367188 18.632812 C 82.539062 18.496094 82.617188 18.324219 82.617188 18.082031 C 82.617188 17.460938 82.347656 17.066406 81.761719 16.855469 C 81.339844 16.691406 80.695312 16.605469 79.890625 16.605469 C 78.949219 16.605469 78.277344 16.816406 77.875 17.230469 C 77.613281 17.480469 77.453125 17.890625 77.367188 18.417969 C 77.335938 18.601562 77.183594 18.738281 77 18.738281 L 72.660156 18.738281 C 72.554688 18.738281 72.449219 18.6875 72.382812 18.613281 C 72.316406 18.535156 72.277344 18.429688 72.296875 18.324219 C 72.566406 16.15625 73.546875 14.617188 75.207031 13.765625 C 76.433594 13.140625 78.191406 12.824219 80.417969 12.824219 C 82.230469 12.824219 83.75 13.09375 84.9375 13.621094 C 86.761719 14.417969 87.683594 15.722656 87.683594 17.527344 L 87.683594 25.773438 C 87.683594 26.539062 87.761719 27.078125 87.914062 27.355469 C 88.046875 27.597656 88.222656 27.75 88.472656 27.828125 C 88.625 27.875 88.730469 28.019531 88.730469 28.183594 M 55.242188 13.09375 C 53.964844 14.246094 53.3125 16.085938 53.3125 18.574219 C 53.3125 20.464844 53.742188 22.007812 54.585938 23.171875 C 55.578125 24.484375 56.976562 25.128906 58.859375 25.128906 C 60.144531 25.128906 61.238281 24.820312 62.085938 24.207031 C 62.917969 23.613281 63.484375 22.75 63.753906 21.636719 C 63.792969 21.472656 63.945312 21.355469 64.121094 21.355469 L 68.910156 21.355469 C 69.023438 21.355469 69.128906 21.414062 69.195312 21.5 C 69.265625 21.585938 69.292969 21.703125 69.265625 21.816406 C 68.71875 24.113281 67.59375 25.945312 65.921875 27.25 C 64.082031 28.691406 61.652344 29.417969 58.734375 29.417969 C 55.441406 29.417969 52.773438 28.488281 50.804688 26.636719 C 48.703125 24.714844 47.636719 21.980469 47.636719 18.523438 C 47.636719 15.042969 48.734375 12.285156 50.902344 10.328125 C 52.917969 8.496094 55.578125 7.5625 58.800781 7.5625 C 62.101562 7.5625 64.78125 8.410156 66.757812 10.078125 C 68.429688 11.488281 69.285156 13.113281 69.300781 14.90625 C 69.300781 15.003906 69.265625 15.097656 69.195312 15.175781 C 69.128906 15.253906 69.035156 15.28125 68.9375 15.28125 L 64.121094 15.28125 C 63.964844 15.28125 63.820312 15.183594 63.773438 15.03125 C 63.464844 14.128906 63.082031 13.457031 62.640625 13.035156 C 61.804688 12.21875 60.527344 11.804688 58.867188 11.804688 C 57.417969 11.804688 56.199219 12.238281 55.25 13.101562 " clip-rule="nonzero"/></clipPath></defs><g clip-path="url(#a49f4a213c)"><g clip-path="url(#a12abd49f6)"><path fill="#f05725" d="M 0.570312 3.167969 L 42.980469 3.167969 L 42.980469 33.839844 L 0.570312 33.839844 Z M 0.570312 3.167969 " fill-opacity="1" fill-rule="nonzero"/></g></g><g clip-path="url(#0414acd5ea)"><g clip-path="url(#9f65548356)"><path fill="#f05725" d="M 0.570312 3.167969 L 42.980469 3.167969 L 42.980469 33.839844 L 0.570312 33.839844 Z M 0.570312 3.167969 " fill-opacity="1" fill-rule="nonzero"/></g></g><g clip-path="url(#911bf258f6)"><g clip-path="url(#b53a7e1ba0)"><path fill="#f05725" d="M 0.570312 3.167969 L 42.980469 3.167969 L 42.980469 33.839844 L 0.570312 33.839844 Z M 0.570312 3.167969 " fill-opacity="1" fill-rule="nonzero"/></g></g><g clip-path="url(#694738c31f)"><g clip-path="url(#d133be4966)"><path fill="#393088" d="M 0.570312 3.167969 L 42.980469 3.167969 L 42.980469 33.839844 L 0.570312 33.839844 Z M 0.570312 3.167969 " fill-opacity="1" fill-rule="nonzero"/></g></g><g clip-path="url(#8e26a91fa7)"><g clip-path="url(#9a99ff9489)"><path fill="#393088" d="M 0.570312 3.167969 L 42.980469 3.167969 L 42.980469 33.839844 L 0.570312 33.839844 Z M 0.570312 3.167969 " fill-opacity="1" fill-rule="nonzero"/></g></g><g clip-path="url(#06b4b996ea)"><g clip-path="url(#f97b6fa4c7)"><path fill="#393088" d="M 0.570312 3.167969 L 42.980469 3.167969 L 42.980469 33.839844 L 0.570312 33.839844 Z M 0.570312 3.167969 " fill-opacity="1" fill-rule="nonzero"/></g></g><g clip-path="url(#a4b192d495)"><g clip-path="url(#82fc016f92)"><path fill="#393088" d="M 47.636719 7.5625 L 199.9375 7.5625 L 199.9375 29.441406 L 47.636719 29.441406 Z M 47.636719 7.5625 " fill-opacity="1" fill-rule="nonzero"/></g></g></svg>