<svg xmlns="http://www.w3.org/2000/svg" id="Layer_1" data-name="Layer 1" width="909.55" height="909.09" viewBox="0 0 909.55 909.09"><defs><style>.cls-1{fill:#ef0000;}</style></defs><path class="cls-1" d="M460.23,278.41V551.14h90.91V278.41Zm0,363.64V733h90.91v-90.9Zm45.45-500.23A362.35,362.35,0,0,1,763,248.41c142,142,142,372.5,0,514.54a363.75,363.75,0,0,1-514.54,0c-142-142-142-372.5,0-514.54A362.37,362.37,0,0,1,505.68,141.82Zm-9.09-96.37C378.64,46.36,261.36,92.73,173,184.32,88.64,271.59,46.36,384.09,45.45,496.59v6.82c.91,118,47.28,235.23,138.87,323.64a452.43,452.43,0,0,0,312.5,127.5h6.82a454.44,454.44,0,0,0,312.5-127.5c91.59-88.41,138-205.69,138.86-323.64v-6.82c-.91-112.5-43.18-225-127.5-312.27-3.64-3.87-7.5-7.5-11.14-11.14-88-84.54-200.22-126.82-312.72-127.73Z" transform="translate(-45.45 -45.45)"></path></svg>