<svg width="33" height="33" viewBox="0 0 33 33" fill="none" xmlns="http://www.w3.org/2000/svg">
<path fill-rule="evenodd" clip-rule="evenodd" d="M20.6254 13.0625H22.8116C24.0354 13.0625 24.6404 14.5475 23.7741 15.4137L17.4629 21.725C16.9266 22.2612 16.0604 22.2612 15.5241 21.725L9.21286 15.4137C8.34661 14.5475 8.96536 13.0625 10.1891 13.0625H12.3754V6.1875C12.3754 5.43125 12.9941 4.8125 13.7504 4.8125H19.2504C20.0066 4.8125 20.6254 5.43125 20.6254 6.1875V13.0625ZM8.25 28.1875C7.49375 28.1875 6.875 27.5688 6.875 26.8125C6.875 26.0562 7.49375 25.4375 8.25 25.4375H24.75C25.5063 25.4375 26.125 26.0562 26.125 26.8125C26.125 27.5688 25.5063 28.1875 24.75 28.1875H8.25Z" fill="#11519B"/>
</svg>
