<svg width="20" height="20" viewBox="0 0 20 20" fill="none" xmlns="http://www.w3.org/2000/svg">
<path fill-rule="evenodd" clip-rule="evenodd" d="M3.33329 3.3335H16.6666C17.5833 3.3335 18.3333 4.0835 18.3333 5.00016V15.0002C18.3333 15.9168 17.5833 16.6668 16.6666 16.6668H3.33329C2.41663 16.6668 1.66663 15.9168 1.66663 15.0002V5.00016C1.66663 4.0835 2.41663 3.3335 3.33329 3.3335ZM10.8833 10.2835L16.3333 6.87516C16.5416 6.74183 16.6666 6.51683 16.6666 6.27516C16.6666 5.71683 16.0583 5.38349 15.5833 5.67516L9.99996 9.16683L4.41663 5.67516C3.94163 5.38349 3.33329 5.71683 3.33329 6.27516C3.33329 6.51683 3.45829 6.74183 3.66663 6.87516L9.11663 10.2835C9.65829 10.6252 10.3416 10.6252 10.8833 10.2835Z" fill="white"/>
</svg>
