<svg width="17" height="17" viewBox="0 0 17 17" fill="none" xmlns="http://www.w3.org/2000/svg">
<path d="M16.5433 7.39418L16.5422 7.39301L9.60682 0.458618C9.3112 0.162903 8.91817 0 8.5001 0C8.08204 0 7.68901 0.162773 7.39326 0.458488L0.461536 7.38938C0.459201 7.39172 0.456866 7.39418 0.454532 7.39651C-0.152525 8.00701 -0.151487 8.99753 0.457515 9.60647C0.735749 9.8848 1.10323 10.046 1.49613 10.0629C1.51208 10.0644 1.52817 10.0652 1.54438 10.0652H1.8208V15.1685C1.8208 16.1784 2.64253 17 3.65273 17H6.36607C6.64106 17 6.86417 16.777 6.86417 16.502V12.501C6.86417 12.0402 7.23904 11.6653 7.69991 11.6653H9.3003C9.76117 11.6653 10.136 12.0402 10.136 12.501V16.502C10.136 16.777 10.359 17 10.6341 17H13.3475C14.3577 17 15.1794 16.1784 15.1794 15.1685V10.0652H15.4357C15.8537 10.0652 16.2467 9.90244 16.5426 9.60673C17.1522 8.99675 17.1525 8.00455 16.5433 7.39418Z" fill="#373541"/>
</svg>
