<svg width="151" height="67" viewBox="0 0 151 67" fill="none" xmlns="http://www.w3.org/2000/svg">
<path d="M122.898 25.2121H151L124.711 41.3178L128.337 67L108.394 50.8942L83.8811 67L87.5092 59.6H6.41112C0.889516 59.6 -0.319305 54.777 0.0655263 52.6354C1.79654 43.0068 3.7072 33.8308 5.88283 30.0003C8.05846 26.1697 12.5306 25.2121 14.4947 25.2121L104.768 24.7768L114.266 0L122.898 25.2121Z" fill="url(#paint0_linear_1850_1068)"/>
<path d="M105.333 28.8092L98.4213 29.7041H104.426H109.665L114.163 17.4865L118.037 31.9415H125.407L116.412 36.4162L118.037 47.8108L110.565 40.8909L93.9907 50.5676L96.2593 36.4162L89 57L109.665 45.3657L122.708 57L120.459 39.1011L138 28.8092H121.213L114.163 6L105.333 28.8092Z" fill="white"/>
<path d="M14.7046 45.25L11.2568 45.2388L11.7397 42.5098L14.8394 42.5322C15.3485 42.5247 15.7752 42.4049 16.1196 42.1729C16.4715 41.9333 16.7448 41.6263 16.9395 41.252C17.1416 40.8701 17.2764 40.4471 17.3438 39.9829C17.3887 39.6385 17.3924 39.2716 17.355 38.8823C17.3175 38.4855 17.1978 38.1486 16.9956 37.8716C16.8009 37.5871 16.4865 37.4299 16.0522 37.3999L13.6714 37.3774L11.313 51H8.1123L10.9312 34.6484L16.1982 34.6597C17.194 34.6896 18.0326 34.9442 18.7139 35.4233C19.4027 35.895 19.9043 36.5277 20.2188 37.3213C20.5407 38.1149 20.6605 38.9946 20.5781 39.9604C20.4808 41.0386 20.1663 41.9744 19.6348 42.7681C19.1107 43.5542 18.4256 44.1681 17.5796 44.6099C16.7336 45.0441 15.7752 45.2575 14.7046 45.25ZM23.6328 34.6484L28.5742 34.6597C29.555 34.6896 30.3786 34.903 31.0449 35.2998C31.7188 35.6891 32.2166 36.2432 32.5386 36.9619C32.868 37.6732 32.9915 38.5192 32.9092 39.5C32.8418 40.3161 32.6659 41.0311 32.3813 41.645C32.1043 42.2515 31.715 42.783 31.2134 43.2397C30.7118 43.689 30.0978 44.082 29.3716 44.4189L28.2822 45.0029H23.9922L24.4639 42.2739L27.1816 42.2964C27.6833 42.2889 28.11 42.1729 28.4619 41.9482C28.8138 41.7236 29.0908 41.4204 29.293 41.0386C29.5026 40.6567 29.6374 40.2337 29.6973 39.7695C29.7422 39.4176 29.7459 39.062 29.7085 38.7026C29.6785 38.3433 29.5662 38.04 29.3716 37.793C29.1769 37.5459 28.8662 37.4111 28.4395 37.3887L26.3843 37.3774L24.0259 51H20.814L23.6328 34.6484ZM28.0801 51L26.4292 43.7114L29.6636 43.7002L31.5054 50.8203V51H28.0801ZM42.7471 48.2822L42.2642 51H35.3687L35.8291 48.2822H42.7471ZM39.1982 34.6484L36.3682 51H33.1562L35.9751 34.6484H39.1982ZM43.0391 41.2744L42.5786 43.9136H36.5928L37.042 41.2744H43.0391ZM45.083 34.6484L44.6001 37.3774H37.7158L38.1987 34.6484H45.083ZM48.4409 34.6484H51.0576L52.0459 46.4517L57.0884 34.6484H59.8848L52.4277 51H50.2378L48.4409 34.6484ZM46.936 34.6484H49.6313L48.0815 46.6875L47.3179 51H44.1172L46.936 34.6484ZM58.5933 34.6484H61.2998L58.4697 51H55.2578L56.0664 46.3955L58.5933 34.6484ZM67.1958 34.6484L64.3545 51H61.1538L63.9951 34.6484H67.1958ZM77.0112 34.6484H80.2119L78.3027 45.8677C78.153 46.9683 77.8236 47.9266 77.3145 48.7427C76.8128 49.5513 76.1427 50.1727 75.3042 50.6069C74.4657 51.0412 73.4774 51.2508 72.3394 51.2358C71.2612 51.2134 70.3665 50.9775 69.6553 50.5283C68.944 50.0716 68.4349 49.4465 68.1279 48.6528C67.8285 47.8517 67.7386 46.9271 67.8584 45.8789L69.7676 34.6484H72.957L71.0815 45.8901C71.0291 46.3394 71.0216 46.7624 71.0591 47.1592C71.0965 47.5485 71.2313 47.8667 71.4634 48.1138C71.6955 48.3534 72.0773 48.4844 72.6089 48.5068C73.1704 48.5293 73.6196 48.4282 73.9565 48.2036C74.3009 47.979 74.5592 47.6646 74.7314 47.2603C74.9111 46.8485 75.0422 46.3918 75.1245 45.8901L77.0112 34.6484ZM84.1313 34.6484H86.748L87.7363 46.4517L92.7788 34.6484H95.5752L88.1182 51H85.9282L84.1313 34.6484ZM82.6265 34.6484H85.3218L83.772 46.6875L83.0083 51H79.8076L82.6265 34.6484ZM94.2837 34.6484H96.9902L94.1602 51H90.9482L91.7568 46.3955L94.2837 34.6484Z" fill="white"/>
<defs>
<linearGradient id="paint0_linear_1850_1068" x1="150.093" y1="23.9062" x2="3.23935" y2="22.4903" gradientUnits="userSpaceOnUse">
<stop stop-color="#D13817"/>
<stop offset="1" stop-color="#E75D15"/>
</linearGradient>
</defs>
</svg>
