<svg width="14" height="15" viewBox="0 0 14 15" fill="none" xmlns="http://www.w3.org/2000/svg">
<path d="M1.45832 6.5625C0.6545 6.5625 0 7.26375 0 8.12499V13.125C0 13.9862 0.6545 14.6875 1.45832 14.6875H3.20832C3.53675 14.6875 3.8389 14.5688 4.08332 14.3712V6.5625H1.45832Z" fill="#456CD0"/>
<path d="M14.0001 8.90624C14.0001 8.53062 13.8612 8.18061 13.6203 7.92248C13.8927 7.60311 14.0316 7.17497 13.9936 6.72936C13.9254 5.93498 13.2575 5.31248 12.4723 5.31248H8.86907C9.04757 4.73184 9.3334 3.66749 9.3334 2.81249C9.3334 1.45687 8.25832 0.3125 7.5834 0.3125C6.97732 0.3125 6.54447 0.678125 6.52582 0.693125C6.457 0.75251 6.41675 0.84251 6.41675 0.93749V3.05686L4.73675 6.95624L4.66675 6.99436V13.6931C5.14157 13.9331 5.7424 14.0625 6.12507 14.0625H11.4795C12.1147 14.0625 12.6707 13.6037 12.8013 12.9706C12.8684 12.645 12.8293 12.3169 12.6957 12.0319C13.1268 11.7994 13.4167 11.3237 13.4167 10.7812C13.4167 10.56 13.3695 10.3481 13.2797 10.1562C13.7107 9.92375 14.0001 9.44812 14.0001 8.90624Z" fill="#456CD0"/>
</svg>
