<svg width="22" height="22" viewBox="0 0 22 22" fill="none" xmlns="http://www.w3.org/2000/svg">
<path fill-rule="evenodd" clip-rule="evenodd" d="M16.5 7.3335C16.5 4.29933 14.0342 1.8335 11 1.8335C7.96587 1.8335 5.50004 4.29933 5.50004 7.3335C5.50004 10.5327 8.81837 14.841 10.2942 16.6102C10.6609 17.0502 11.33 17.0502 11.6967 16.6102C13.1817 14.841 16.5 10.5327 16.5 7.3335ZM9.16671 7.3335C9.16671 6.32516 9.99171 5.50016 11 5.50016C12.0084 5.50016 12.8334 6.32516 12.8334 7.3335C12.8334 8.34183 12.0175 9.16683 11 9.16683C9.99171 9.16683 9.16671 8.34183 9.16671 7.3335ZM5.50004 20.1668C4.99587 20.1668 4.58337 19.7543 4.58337 19.2502C4.58337 18.746 4.99587 18.3335 5.50004 18.3335H16.5C17.0042 18.3335 17.4167 18.746 17.4167 19.2502C17.4167 19.7543 17.0042 20.1668 16.5 20.1668H5.50004Z" fill="white"/>
</svg>
