<svg width="20" height="19" viewBox="0 0 20 19" fill="none" xmlns="http://www.w3.org/2000/svg">
<g clip-path="url(#clip0_1704_559)">
<path d="M7.28564 13.9429V17.6146C7.28564 17.8711 7.45031 18.0983 7.69414 18.1791C7.7551 18.1989 7.81764 18.2084 7.87939 18.2084C8.06464 18.2084 8.24356 18.1213 8.35756 17.9661L10.5053 15.0433L7.28564 13.9429Z" fill="white"/>
<path d="M19.1086 0.109379C18.9265 -0.0196623 18.6874 -0.0370789 18.4895 0.0666294L0.676987 9.36871C0.466404 9.47875 0.342112 9.70359 0.359529 9.9403C0.377737 10.1778 0.535279 10.3805 0.75932 10.4573L5.7112 12.1498L16.257 3.13275L8.09649 12.9645L16.3955 15.801C16.4573 15.8216 16.5222 15.8327 16.5871 15.8327C16.6948 15.8327 16.8017 15.8034 16.8959 15.7464C17.0463 15.6545 17.1484 15.5002 17.1745 15.3268L19.3516 0.680963C19.3841 0.459296 19.2907 0.239213 19.1086 0.109379Z" fill="white"/>
</g>
<defs>
<clipPath id="clip0_1704_559">
<rect width="19" height="19" fill="white" transform="translate(0.358398)"/>
</clipPath>
</defs>
</svg>
