<svg width="24" height="24" viewBox="0 0 24 24" fill="none" xmlns="http://www.w3.org/2000/svg">
<g id="icon/communication/rss_feed_24px">
<path id="icon/communication/rss_feed_24px_2" fill-rule="evenodd" clip-rule="evenodd" d="M4.25671 5.67398C4.25671 4.84398 4.98671 4.17398 5.81671 4.26398C13.1667 4.99398 19.0067 10.844 19.7367 18.184C19.8167 19.014 19.1567 19.744 18.3167 19.744C17.5867 19.744 16.9867 19.194 16.9167 18.464C16.3167 12.454 11.5367 7.67398 5.52671 7.07398C4.80671 7.00398 4.25671 6.40398 4.25671 5.67398ZM5.84671 9.97398C5.00671 9.83398 4.25671 10.524 4.25671 11.374C4.25671 12.084 4.78671 12.654 5.48671 12.774C8.40671 13.284 10.7067 15.594 11.2267 18.514C11.3467 19.214 11.9167 19.744 12.6267 19.744C13.4767 19.744 14.1667 18.994 14.0367 18.154C13.3567 13.954 10.0467 10.644 5.84671 9.97398ZM6.43671 15.384C5.23273 15.384 4.25671 16.36 4.25671 17.564C4.25671 18.768 5.23273 19.744 6.43671 19.744C7.64069 19.744 8.61671 18.768 8.61671 17.564C8.61671 16.36 7.64069 15.384 6.43671 15.384Z" fill="white"/>
</g>
</svg>
