<svg width="21" height="24" viewBox="0 0 21 24" fill="none" xmlns="http://www.w3.org/2000/svg">
<g id="icon/communication/rss_feed_24px" filter="url(#filter0_d_1918_384)">
<path id="icon/communication/rss_feed_24px_2" fill-rule="evenodd" clip-rule="evenodd" d="M4.36987 4.49194C4.36987 3.83486 4.94779 3.30444 5.60487 3.37569C11.4236 3.95361 16.047 8.58486 16.6249 14.3957C16.6882 15.0528 16.1657 15.6307 15.5007 15.6307C14.9228 15.6307 14.4478 15.1953 14.3924 14.6174C13.9174 9.85944 10.1332 6.07528 5.37529 5.60028C4.80529 5.54486 4.36987 5.06986 4.36987 4.49194ZM5.62862 7.89611C4.96362 7.78528 4.36987 8.33153 4.36987 9.00444C4.36987 9.56653 4.78946 10.0178 5.34362 10.1128C7.65529 10.5165 9.47612 12.3453 9.88779 14.6569C9.98279 15.2111 10.434 15.6307 10.9961 15.6307C11.669 15.6307 12.2153 15.0369 12.1124 14.3719C11.574 11.0469 8.95362 8.42653 5.62862 7.89611ZM6.09571 12.179C5.14255 12.179 4.36987 12.9517 4.36987 13.9049C4.36987 14.858 5.14255 15.6307 6.09571 15.6307C7.04886 15.6307 7.82154 14.858 7.82154 13.9049C7.82154 12.9517 7.04886 12.179 6.09571 12.179Z" fill="#11519B"/>
</g>
<defs>
<filter id="filter0_d_1918_384" x="-3" y="0" width="27" height="27" filterUnits="userSpaceOnUse" color-interpolation-filters="sRGB">
<feFlood flood-opacity="0" result="BackgroundImageFix"/>
<feColorMatrix in="SourceAlpha" type="matrix" values="0 0 0 0 0 0 0 0 0 0 0 0 0 0 0 0 0 0 127 0" result="hardAlpha"/>
<feOffset dy="4"/>
<feGaussianBlur stdDeviation="2"/>
<feComposite in2="hardAlpha" operator="out"/>
<feColorMatrix type="matrix" values="0 0 0 0 0 0 0 0 0 0 0 0 0 0 0 0 0 0 0.25 0"/>
<feBlend mode="normal" in2="BackgroundImageFix" result="effect1_dropShadow_1918_384"/>
<feBlend mode="normal" in="SourceGraphic" in2="effect1_dropShadow_1918_384" result="shape"/>
</filter>
</defs>
</svg>
