<svg width="31" height="31" viewBox="0 0 31 31" fill="none" xmlns="http://www.w3.org/2000/svg">
<path fill-rule="evenodd" clip-rule="evenodd" d="M19.7818 19.0042H20.6411L25.253 23.6378C25.699 24.0838 25.699 24.8126 25.253 25.2585C24.8071 25.7045 24.0783 25.7045 23.6323 25.2585L19.0095 20.6357V19.7764L18.7159 19.4719C17.193 20.7771 15.1155 21.4515 12.9074 21.0817C9.88357 20.5705 7.46884 18.047 7.09901 15.0014C6.5334 10.4003 10.4057 6.52802 15.0067 7.09363C18.0523 7.46346 20.5759 9.87819 21.0871 12.9021C21.4569 15.1101 20.7825 17.1877 19.4773 18.7105L19.7818 19.0042ZM9.22007 14.1094C9.22007 16.8178 11.4064 19.0042 14.1148 19.0042C16.8232 19.0042 19.0095 16.8178 19.0095 14.1094C19.0095 11.401 16.8232 9.21469 14.1148 9.21469C11.4064 9.21469 9.22007 11.401 9.22007 14.1094Z" fill="#1976D2"/>
</svg>
