<svg width="46" height="46" viewBox="0 0 46 46" fill="none" xmlns="http://www.w3.org/2000/svg">
<circle opacity="0.17" cx="23.0063" cy="22.8691" r="22.5" fill="white"/>
<circle cx="22.916" cy="22.7788" r="17.3623" fill="white"/>
<path fill-rule="evenodd" clip-rule="evenodd" d="M27.2224 26.3029H28.0866L32.7247 30.9629C33.1732 31.4114 33.1732 32.1443 32.7247 32.5928C32.2762 33.0413 31.5433 33.0413 31.0948 32.5928L26.4457 27.9437V27.0796L26.1504 26.7733C24.6189 28.086 22.5295 28.7642 20.3089 28.3922C17.2679 27.8781 14.8394 25.3403 14.4675 22.2773C13.8987 17.6501 17.793 13.7558 22.4202 14.3247C25.4831 14.6966 28.0209 17.1251 28.5351 20.1661C28.907 22.3867 28.2288 24.4761 26.9161 26.0075L27.2224 26.3029ZM16.6006 21.3803C16.6006 24.1042 18.7994 26.3029 21.5232 26.3029C24.247 26.3029 26.4457 24.1042 26.4457 21.3803C26.4457 18.6565 24.247 16.4578 21.5232 16.4578C18.7994 16.4578 16.6006 18.6565 16.6006 21.3803Z" fill="#174371"/>
</svg>
