<svg width="27" height="27" viewBox="0 0 27 27" fill="none" xmlns="http://www.w3.org/2000/svg">
<path fill-rule="evenodd" clip-rule="evenodd" d="M17.2293 16.552H17.9778L21.9946 20.5878C22.383 20.9762 22.383 21.611 21.9946 21.9994C21.6062 22.3878 20.9715 22.3878 20.583 21.9994L16.5567 17.9731V17.2246L16.3009 16.9594C14.9746 18.0962 13.1651 18.6836 11.242 18.3615C8.60829 17.9162 6.50514 15.7183 6.18303 13.0657C5.6904 9.05833 9.06303 5.6857 13.0704 6.17833C15.723 6.50044 17.9209 8.6036 18.3662 11.2373C18.6883 13.1604 18.1009 14.9699 16.9641 16.2962L17.2293 16.552ZM8.03041 12.2889C8.03041 14.6478 9.93462 16.552 12.2936 16.552C14.6525 16.552 16.5567 14.6478 16.5567 12.2889C16.5567 9.92991 14.6525 8.0257 12.2936 8.0257C9.93462 8.0257 8.03041 9.92991 8.03041 12.2889Z" fill="#555555"/>
</svg>
