<svg width="30" height="30" viewBox="0 0 30 30" fill="none" xmlns="http://www.w3.org/2000/svg">
<circle cx="15" cy="14.5278" r="14" stroke="#11519B"/>
<path fill-rule="evenodd" clip-rule="evenodd" d="M9.007 7.52783H22.3403C23.257 7.52783 24.007 8.31533 24.007 9.27783V19.7778C24.007 20.7403 23.257 21.5278 22.3403 21.5278H9.007C8.09033 21.5278 7.34033 20.7403 7.34033 19.7778V9.27783C7.34033 8.31533 8.09033 7.52783 9.007 7.52783ZM16.5568 14.8254L22.0068 11.2466C22.2152 11.1066 22.3402 10.8704 22.3402 10.6166C22.3402 10.0304 21.7318 9.68039 21.2568 9.98664L15.6735 13.6529L10.0902 9.98664C9.61517 9.68039 9.00684 10.0304 9.00684 10.6166C9.00684 10.8704 9.13184 11.1066 9.34017 11.2466L14.7902 14.8254C15.3318 15.1841 16.0152 15.1841 16.5568 14.8254Z" fill="#11519B"/>
</svg>
