<svg width="29" height="30" viewBox="0 0 29 30" fill="none" xmlns="http://www.w3.org/2000/svg">
<path d="M21.3553 12.8561C21.3655 12.9805 21.3655 13.1049 21.3655 13.2292C21.3655 17.0224 18.066 21.3929 12.0355 21.3929C10.1777 21.3929 8.45178 20.9221 7 20.1049C7.26397 20.1315 7.51775 20.1404 7.79188 20.1404C9.32484 20.1404 10.736 19.6874 11.8629 18.9145C10.4213 18.8879 9.21319 18.0617 8.79694 16.9247C9 16.9513 9.20303 16.9691 9.41625 16.9691C9.71066 16.9691 10.0051 16.9335 10.2792 16.8714C8.77666 16.6048 7.64972 15.45 7.64972 14.0554V14.0198C8.08625 14.233 8.59391 14.3663 9.13194 14.384C8.24869 13.8688 7.67003 12.9894 7.67003 11.9944C7.67003 11.4615 7.83244 10.9729 8.11672 10.5465C9.73094 12.2876 12.1573 13.4246 14.8781 13.549C14.8274 13.3358 14.7969 13.1138 14.7969 12.8917C14.7969 11.3104 16.2588 10.0224 18.0761 10.0224C19.0203 10.0224 19.873 10.3688 20.472 10.9285C21.2131 10.8041 21.9238 10.5643 22.5533 10.2356C22.3096 10.9018 21.7918 11.4615 21.1116 11.8168C21.7715 11.7546 22.4111 11.5947 22.9999 11.3726C22.5533 11.9412 21.9949 12.4475 21.3553 12.8561Z" fill="#11519B"/>
<circle cx="14.5" cy="15.2076" r="14" stroke="#11519B"/>
</svg>
