<svg width="35" height="34" viewBox="0 0 35 34" fill="none" xmlns="http://www.w3.org/2000/svg">
<circle cx="17.5" cy="17.5278" r="14" stroke="#11519B"/>
<path fill-rule="evenodd" clip-rule="evenodd" d="M11.7865 11.2861C12.9542 10.3503 14.6595 10.4787 15.8 11.453L18.0278 13.3561C18.4232 13.6939 19.0294 13.6462 19.3672 13.2509C19.7049 12.8555 19.6573 12.2492 19.2619 11.9115L17.1101 10.0733C15.1257 8.37803 12.1135 8.31686 10.2346 10.1313C8.07852 12.2088 8.22737 15.6371 10.4475 17.5338L12.7666 19.5148C13.1619 19.8526 13.7682 19.8049 14.1059 19.4096C14.4437 19.0142 14.3961 18.408 14.0007 18.0702L11.6817 16.0891C10.2294 14.8485 10.2115 12.5447 11.7865 11.2861ZM14.5663 15.7915L19.1283 19.6887C19.5465 20.0459 20.181 19.9961 20.5382 19.5779C20.8955 19.1597 20.8456 18.5253 20.4274 18.168L15.8654 14.2708C15.4472 13.9136 14.8128 13.9634 14.4555 14.3816C14.0983 14.7998 14.1482 15.4342 14.5663 15.7915ZM22.2272 14.4447L24.3789 16.2828C26.3634 17.9781 26.902 20.9503 25.4033 23.0895C23.6806 25.5372 20.2711 25.9257 18.0509 24.0291L15.7319 22.048C15.3365 21.7102 15.2889 21.104 15.6266 20.7086C15.9644 20.3133 16.5706 20.2656 16.966 20.6034L19.285 22.5844C20.7372 23.8251 23.0155 23.4829 24.0127 21.7306C24.7546 20.431 24.3614 18.7667 23.2209 17.7924L20.9931 15.8893C20.5977 15.5515 20.5501 14.9453 20.8878 14.5499C21.2256 14.1546 21.8318 14.1069 22.2272 14.4447Z" fill="#11519B"/>
</svg>
