<svg width="23" height="23" viewBox="0 0 23 23" fill="none" xmlns="http://www.w3.org/2000/svg">
<path d="M6.22072 19.8269L11.2017 12.7508L2.87854 9.46973L8.73994 8.46707L11.4999 3.00098L14.3282 8.65035L20.1896 9.59191L11.9492 12.4777L14.0263 16.0463L16.5456 19.8269L11.6868 17.1532L6.22072 19.8269Z" fill="#FCDD3E"/>
<path d="M21.0091 9.52359C21.025 9.40967 20.9966 9.29399 20.9298 9.20037C20.8629 9.10675 20.7627 9.04235 20.6497 9.02047L14.6015 8.14359L11.9026 2.6775C11.8645 2.60359 11.8067 2.54159 11.7358 2.49831C11.6648 2.45503 11.5832 2.43213 11.5001 2.43213C11.4169 2.43213 11.3354 2.45503 11.2644 2.49831C11.1934 2.54159 11.1356 2.60359 11.0976 2.6775L8.39865 8.14359L2.36474 9.02047C2.28347 9.03513 2.20771 9.07157 2.14552 9.12591C2.08333 9.18021 2.03704 9.2504 2.01159 9.32896C1.98615 9.40752 1.98249 9.4915 2.00101 9.572C2.01953 9.65246 2.05954 9.72642 2.11677 9.78594L6.4688 14.0409L5.45177 20.0497C5.43944 20.1325 5.45012 20.2171 5.48264 20.2942C5.5152 20.3714 5.56832 20.4381 5.6362 20.487C5.70409 20.536 5.78416 20.5654 5.86764 20.5719C5.95109 20.5784 6.03475 20.5619 6.10943 20.5241L11.5001 17.685L16.8907 20.5241C16.9652 20.5609 17.0485 20.5767 17.1314 20.5698C17.2143 20.5628 17.2936 20.5333 17.361 20.4844C17.4283 20.4356 17.481 20.3693 17.5134 20.2927C17.5458 20.216 17.5566 20.132 17.5447 20.0497L16.5313 14.0409L20.8833 9.78594C20.9525 9.71438 20.9967 9.62235 21.0091 9.52359ZM14.2385 8.98453L18.6408 9.62422L11.9493 11.8883V4.80141L13.9007 8.75453C13.9348 8.81685 13.9832 8.87018 14.0419 8.91018C14.1006 8.95014 14.168 8.97565 14.2385 8.98453ZM8.76161 8.98453C8.83385 8.97375 8.90235 8.94557 8.96121 8.90234C9.02008 8.85914 9.06751 8.80222 9.09943 8.73656L11.0508 4.78344V11.8883L4.35927 9.63859L8.76161 8.98453ZM4.15443 10.5191L10.7813 12.7436L6.65927 18.3283L7.41036 13.9583C7.42151 13.8865 7.41525 13.8132 7.39211 13.7444C7.36896 13.6756 7.32961 13.6134 7.2774 13.563L4.15443 10.5191ZM11.5001 16.7291C11.4276 16.7295 11.3563 16.7467 11.2916 16.7794L7.41396 18.817L11.5001 13.2719L15.5861 18.817L11.7085 16.7794C11.6438 16.7467 11.5725 16.7295 11.5001 16.7291ZM15.5897 13.9583L16.3408 18.3283L12.2188 12.7436L18.8385 10.5191L15.7155 13.563C15.6646 13.6141 15.6266 13.6766 15.6047 13.7454C15.5828 13.8141 15.5777 13.8871 15.5897 13.9583Z" fill="#FF9078"/>
</svg>
