<svg width="25" height="25" viewBox="0 0 25 25" fill="none" xmlns="http://www.w3.org/2000/svg">
<g id="icon/notification/sync_24px">
<path id="icon/notification/sync_24px_2" fill-rule="evenodd" clip-rule="evenodd" d="M12.7798 2.92817V4.71817C17.1998 4.71817 20.7798 8.29817 20.7798 12.7182C20.7798 13.7582 20.5798 14.7582 20.2098 15.6682C19.9398 16.3382 19.0798 16.5182 18.5698 16.0082C18.2998 15.7382 18.1898 15.3282 18.3398 14.9682C18.6298 14.2782 18.7798 13.5082 18.7798 12.7182C18.7798 9.40817 16.0898 6.71817 12.7798 6.71817V8.50817C12.7798 8.95817 12.2398 9.17817 11.9198 8.86817L9.12979 6.07817C8.92978 5.87817 8.92978 5.56817 9.12979 5.36817L11.9298 2.57817C12.2398 2.25817 12.7798 2.47817 12.7798 2.92817ZM6.77979 12.7182C6.77979 16.0282 9.46979 18.7182 12.7798 18.7182V16.9282C12.7798 16.4782 13.3198 16.2582 13.6298 16.5682L16.4198 19.3582C16.6198 19.5582 16.6198 19.8682 16.4198 20.0682L13.6298 22.8582C13.3198 23.1782 12.7798 22.9582 12.7798 22.5082V20.7182C8.35979 20.7182 4.77979 17.1382 4.77979 12.7182C4.77979 11.6782 4.97979 10.6782 5.34979 9.76817C5.61979 9.09817 6.47979 8.91817 6.98979 9.42817C7.25979 9.69817 7.36979 10.1082 7.21979 10.4682C6.92979 11.1582 6.77979 11.9282 6.77979 12.7182Z" fill="black" fill-opacity="0.54"/>
</g>
</svg>
