<svg width="16" height="16" viewBox="0 0 16 16" fill="none" xmlns="http://www.w3.org/2000/svg">
<g clip-path="url(#clip0_1629_967)">
<path d="M8 16C3.58177 16 0 12.4182 0 8C0 3.58177 3.58177 0 8 0C12.4182 0 16 3.58177 16 8C15.9951 12.4161 12.4161 15.9951 8 16ZM14.9189 5.1974L12.6438 4.80482C12.9042 5.7599 13.0448 6.74362 13.0624 7.73333H15.46C15.4299 6.86276 15.2467 6.0043 14.9189 5.1974ZM0.539974 7.73333H2.93763C2.95521 6.74362 3.09583 5.7599 3.35625 4.80482L1.08112 5.1974C0.753255 6.0043 0.570052 6.86276 0.539974 7.73333ZM1.08112 10.8026L3.35625 11.1952C3.09583 10.2401 2.95521 9.25638 2.93763 8.26667H0.539974C0.570052 9.13724 0.753255 9.9957 1.08112 10.8026ZM8.26667 11.7184C9.22487 11.7061 10.1807 11.6189 11.1254 11.4573L12.0667 11.2949C12.3559 10.3108 12.5115 9.29232 12.5293 8.26667H8.26667V11.7184ZM11.2163 11.9829C10.2417 12.1495 9.25534 12.2395 8.26667 12.2517V15.4517C9.79544 15.3048 11.1234 13.9051 11.876 11.868L11.2163 11.9829ZM7.73333 12.2517C6.74466 12.2395 5.75859 12.1495 4.78398 11.9829L4.12396 11.8687C4.87656 13.9064 6.20456 15.3066 7.73333 15.4529V12.2517ZM4.87487 11.4573C5.8194 11.6189 6.77513 11.7061 7.73333 11.7184V8.26667H3.4707C3.48854 9.29232 3.64414 10.3108 3.93333 11.2949L4.87487 11.4573ZM3.4707 7.73333H7.73333V4.28164C6.77513 4.29388 5.81927 4.38112 4.87461 4.54271L3.93333 4.70508C3.64414 5.68919 3.48854 6.70768 3.4707 7.73333ZM4.78372 4.01706C5.75833 3.85026 6.74453 3.7599 7.73333 3.74687V0.546874C6.20456 0.693879 4.87656 2.09362 4.12396 4.13073L4.78372 4.01706ZM8.26667 3.74687C9.25534 3.7599 10.2414 3.85026 11.216 4.01706L11.876 4.13125C11.1234 2.09362 9.79544 0.693358 8.26667 0.547134V3.74687ZM11.1251 4.54271C10.1806 4.38112 9.22487 4.29388 8.26667 4.28164V7.73333H12.5293C12.5115 6.70768 12.3559 5.68919 12.0667 4.70508L11.1251 4.54271ZM13.0624 8.26667C13.0448 9.25638 12.9042 10.2401 12.6438 11.1952L14.9189 10.8026C15.2467 9.9957 15.4299 9.13724 15.46 8.26667H13.0624ZM14.6491 11.3904L12.4682 11.7667C12.0762 13.0457 11.3427 14.1936 10.3466 15.0867C12.2092 14.4651 13.7539 13.1382 14.6491 11.3904ZM5.65339 15.0867C4.65729 14.1936 3.92383 13.0457 3.53177 11.7667L1.35091 11.3904C2.24609 13.1382 3.79076 14.4651 5.65339 15.0867ZM1.35091 4.60963L3.53177 4.23333C3.92383 2.9543 4.65729 1.80638 5.65339 0.91328C3.79076 1.53489 2.24609 2.86185 1.35091 4.60963ZM10.3466 0.91328C11.3427 1.80638 12.0762 2.9543 12.4682 4.23333L14.6491 4.60963C13.7539 2.86185 12.2092 1.53489 10.3466 0.91328Z" fill="white" stroke="white" stroke-width="0.4"/>
</g>
<defs>
<clipPath id="clip0_1629_967">
<rect width="16" height="16" fill="white" transform="matrix(1 0 0 -1 0 16)"/>
</clipPath>
</defs>
</svg>
