<svg width="16" height="19" viewBox="0 0 16 19" fill="none" xmlns="http://www.w3.org/2000/svg">
<path d="M15.2087 9.28149C15.0192 8.45837 14.3459 7.8512 13.5356 7.76082C11.617 7.5465 9.67415 7.54549 7.74081 7.5465C5.80667 7.54549 3.86424 7.5465 1.94506 7.76082C1.13509 7.8514 0.462205 8.45858 0.272955 9.28149C0.00323501 10.4536 0 11.733 0 12.9399C0 14.1468 2.41028e-08 15.426 0.26972 16.5981C0.45897 17.421 1.13186 18.0282 1.94223 18.1188C3.86101 18.3333 5.80344 18.3341 7.73738 18.3333C9.67152 18.3343 11.6135 18.3333 13.5329 18.1188C14.3429 18.0282 15.0162 17.421 15.2054 16.5981C15.475 15.426 15.4764 14.1468 15.4764 12.9399C15.4762 11.7328 15.4782 10.4536 15.2087 9.28149ZM4.4144 10.1899H3.29427V16.142H2.2538V10.1899H1.1541V9.21497H4.4144V10.1899ZM7.2404 16.1422H6.30446V15.5791C5.93264 16.0053 5.57961 16.2131 5.23569 16.2131C4.93423 16.2131 4.72678 16.091 4.63317 15.8296C4.58221 15.6735 4.55067 15.4264 4.55067 15.0621V10.9807H5.4858V14.7808C5.4858 15 5.4858 15.1138 5.49429 15.1446C5.51673 15.2897 5.5877 15.3633 5.71306 15.3633C5.90069 15.3633 6.09681 15.2188 6.30426 14.9254V10.9807H7.24019L7.2404 16.1422ZM10.7935 14.593C10.7935 15.0704 10.7613 15.4143 10.6988 15.6331C10.5739 16.017 10.3238 16.2131 9.95175 16.2131C9.61895 16.2131 9.29787 16.0283 8.98509 15.6422V16.1424H8.04996V9.21497H8.98509V11.4773C9.28716 11.1054 9.60783 10.9174 9.95175 10.9174C10.3238 10.9174 10.5741 11.1133 10.6988 11.4997C10.7617 11.7074 10.7935 12.0486 10.7935 12.5373V14.593ZM14.3231 13.7319H12.4526V14.6468C12.4526 15.1246 12.6089 15.3631 12.9304 15.3631C13.1607 15.3631 13.2947 15.238 13.3481 14.9881C13.3568 14.9373 13.3692 14.7295 13.3692 14.3544H14.3233V14.4909C14.3233 14.7924 14.3118 15 14.3033 15.0934C14.2719 15.3005 14.1983 15.4883 14.0849 15.6537C13.8259 16.0285 13.4421 16.2133 12.9537 16.2133C12.4644 16.2133 12.0919 16.0372 11.8216 15.6848C11.6233 15.4264 11.5213 15.0196 11.5213 14.4711V12.6633C11.5213 12.1115 11.6117 11.708 11.8105 11.4471C12.0806 11.0939 12.4528 10.918 12.9306 10.918C13.3999 10.918 13.7719 11.0939 14.034 11.4471C14.2299 11.708 14.3235 12.1115 14.3235 12.6633V13.7319H14.3231Z" fill="white"/>
<path d="M12.9221 11.7603C12.6095 11.7603 12.4528 11.999 12.4528 12.4762V12.9538H13.3879V12.4762C13.3877 11.999 13.2315 11.7603 12.9221 11.7603Z" fill="white"/>
<path d="M9.45144 11.7603C9.29737 11.7603 9.14128 11.833 8.98499 11.9877V15.1336C9.14108 15.2901 9.29737 15.3641 9.45144 15.3641C9.72116 15.3641 9.85824 15.1336 9.85824 14.6675V12.4645C9.85824 11.999 9.72116 11.7603 9.45144 11.7603Z" fill="white"/>
<path d="M9.97389 7.07106C10.3186 7.07106 10.6773 6.86159 11.0536 6.43052V6.99948H11.9988V1.7832H11.0536V5.76997C10.8441 6.06598 10.6456 6.21236 10.4565 6.21236C10.3299 6.21236 10.2555 6.13755 10.2349 5.99096C10.2234 5.96003 10.2234 5.84498 10.2234 5.62359V1.7832H9.28119V5.90786C9.28119 6.27625 9.31273 6.52555 9.36489 6.68346C9.45992 6.94772 9.66959 7.07106 9.97389 7.07106Z" fill="white"/>
<path d="M3.39352 4.16469V6.99959H4.44167V4.16469L5.70252 0H4.64265L3.9275 2.74876L3.18345 0H2.08051C2.3015 0.648825 2.53139 1.30089 2.75238 1.95032C3.08862 2.92649 3.29849 3.66246 3.39352 4.16469Z" fill="white"/>
<path d="M7.10738 7.07115C7.58091 7.07115 7.94889 6.89302 8.20992 6.53717C8.40826 6.27614 8.50329 5.86489 8.50329 5.31049V3.48391C8.50329 2.92627 8.40847 2.51866 8.20992 2.25521C7.94889 1.89834 7.58111 1.72021 7.10738 1.72021C6.63628 1.72021 6.2685 1.89834 6.00686 2.25521C5.80609 2.51866 5.71106 2.92627 5.71106 3.48391V5.31049C5.71106 5.86489 5.80609 6.27614 6.00686 6.53717C6.26829 6.89302 6.63628 7.07115 7.10738 7.07115ZM6.65629 3.29446C6.65629 2.81183 6.80268 2.57123 7.10738 2.57123C7.41208 2.57123 7.55806 2.81163 7.55806 3.29446V5.48862C7.55806 5.97124 7.41208 6.21266 7.10738 6.21266C6.80268 6.21266 6.65629 5.97124 6.65629 5.48862V3.29446Z" fill="white"/>
</svg>
