<svg width="55" height="55" viewBox="0 0 55 55" fill="none" xmlns="http://www.w3.org/2000/svg">
<g clip-path="url(#clip0_2113_325)">
<path d="M54.0833 30.25C53.5771 30.25 53.1667 30.6604 53.1667 31.1666C53.1667 32.6853 51.9354 33.9166 50.4167 33.9166H36.6667C36.1604 33.9166 35.75 33.5062 35.75 33C35.75 32.4937 36.1604 32.0833 36.6667 32.0833H42.1667C42.6729 32.0833 43.0833 31.6729 43.0833 31.1666C43.0833 30.6604 42.6729 30.25 42.1667 30.25H36.6667C36.1604 30.25 35.75 29.8395 35.75 29.3333C35.75 28.8271 36.1604 28.4166 36.6667 28.4166H42.1667C42.6729 28.4166 43.0833 28.0062 43.0833 27.5C43.0833 26.9937 42.6729 26.5833 42.1667 26.5833H36.6667C36.1604 26.5833 35.75 26.1729 35.75 25.6666C35.75 25.1604 36.1604 24.75 36.6667 24.75H42.1667C42.6729 24.75 43.0833 24.3395 43.0833 23.8333C43.0833 23.3271 42.6729 22.9166 42.1667 22.9166H36.6667C36.1604 22.9166 35.75 22.5062 35.75 22C35.75 21.4937 36.1604 21.0833 36.6667 21.0833H44.9167C45.4229 21.0833 45.8333 20.6729 45.8333 20.1666C45.8333 19.6604 45.4229 19.25 44.9167 19.25H42.1667C41.6604 19.25 41.25 18.8395 41.25 18.3333V17.4166C41.25 16.9104 41.6604 16.5 42.1667 16.5H45.8333C47.352 16.5 48.5833 17.7313 48.5833 19.25V20.1666C48.5833 20.6729 48.9938 21.0833 49.5 21.0833H50.4167C51.9354 21.0833 53.1667 22.3146 53.1667 23.8333C53.1667 24.3395 53.5771 24.75 54.0833 24.75C54.5896 24.75 55 24.3395 55 23.8333C55 21.3022 52.9478 19.25 50.4167 19.25C50.4167 16.7188 48.3645 14.6666 45.8333 14.6666H42.1667C40.648 14.6666 39.4167 15.8979 39.4167 17.4166V17.4807C36.4558 13.9671 32.095 11.9391 27.5 11.9391C22.905 11.9391 18.5442 13.9671 15.5833 17.4807V17.4166C15.5833 15.8979 14.352 14.6666 12.8333 14.6666H9.16667C6.63552 14.6666 4.58333 16.7188 4.58333 19.25C2.05219 19.25 0 21.3022 0 23.8333C0 24.3395 0.410437 24.75 0.916667 24.75C1.4229 24.75 1.83333 24.3395 1.83333 23.8333C1.83333 22.3146 3.06465 21.0833 4.58333 21.0833H5.5C6.00623 21.0833 6.41667 20.6729 6.41667 20.1666V19.25C6.41667 17.7313 7.64798 16.5 9.16667 16.5H12.8333C13.3396 16.5 13.75 16.9104 13.75 17.4166V18.3333C13.75 18.8395 13.3396 19.25 12.8333 19.25H10.0833C9.5771 19.25 9.16667 19.6604 9.16667 20.1666C9.16667 20.6729 9.5771 21.0833 10.0833 21.0833H18.3333C18.8396 21.0833 19.25 21.4937 19.25 22C19.25 22.5062 18.8396 22.9166 18.3333 22.9166H12.8333C12.3271 22.9166 11.9167 23.3271 11.9167 23.8333C11.9167 24.3395 12.3271 24.75 12.8333 24.75H18.3333C18.8396 24.75 19.25 25.1604 19.25 25.6666C19.25 26.1729 18.8396 26.5833 18.3333 26.5833H12.8333C12.3271 26.5833 11.9167 26.9937 11.9167 27.5C11.9167 28.0062 12.3271 28.4166 12.8333 28.4166H18.3333C18.8396 28.4166 19.25 28.8271 19.25 29.3333C19.25 29.8395 18.8396 30.25 18.3333 30.25H12.8333C12.3271 30.25 11.9167 30.6604 11.9167 31.1666C11.9167 31.6729 12.3271 32.0833 12.8333 32.0833H18.3333C18.8396 32.0833 19.25 32.4937 19.25 33C19.25 33.5062 18.8396 33.9166 18.3333 33.9166H4.58333C3.06465 33.9166 1.83333 32.6853 1.83333 31.1666C1.83333 30.6604 1.4229 30.25 0.916667 30.25C0.410437 30.25 0 30.6604 0 31.1666C0 33.6978 2.05219 35.75 4.58333 35.75H14.2907C17.1396 40.3011 22.1307 43.0654 27.5 43.0654C32.8693 43.0654 37.8604 40.3011 40.7093 35.75H50.4167C52.9478 35.75 55 33.6978 55 31.1666C55 30.6604 54.5896 30.25 54.0833 30.25ZM27.5 41.25C23.1722 41.25 19.0969 39.2121 16.5 35.75H18.3333C19.852 35.75 21.0833 34.5187 21.0833 33C21.082 32.3228 20.8304 31.6702 20.3775 31.1666C21.3111 30.1229 21.3111 28.5437 20.3775 27.5C21.3111 26.4562 21.3111 24.877 20.3775 23.8333C20.8304 23.3297 21.082 22.6772 21.0833 22C21.0833 20.4813 19.852 19.25 18.3333 19.25H16.5C19.0969 15.7878 23.1722 13.75 27.5 13.75C31.8278 13.75 35.9031 15.7878 38.5 19.25H36.6667C35.148 19.25 33.9167 20.4813 33.9167 22C33.918 22.6772 34.1696 23.3297 34.6225 23.8333C33.6889 24.877 33.6889 26.4562 34.6225 27.5C33.6889 28.5437 33.6889 30.1229 34.6225 31.1666C34.1696 31.6702 33.918 32.3228 33.9167 33C33.9167 34.5187 35.148 35.75 36.6667 35.75H38.5C35.9031 39.2121 31.8278 41.25 27.5 41.25Z" fill="#FF9431"/>
<path d="M27.5 23.8333C28.2538 23.8431 28.8612 24.4546 28.8661 25.2083C28.8661 25.7145 29.2761 26.125 29.7828 26.125C30.289 26.125 30.6994 25.7145 30.6994 25.2083C30.6959 23.7943 29.7698 22.5482 28.4167 22.1373V21.0833C28.4167 20.5771 28.0063 20.1666 27.5 20.1666C26.9938 20.1666 26.5834 20.5771 26.5834 21.0833V22.1373C25.0633 22.5975 24.1081 24.1 24.3377 25.672C24.5674 27.2435 25.912 28.4103 27.5 28.4166C28.2596 28.4166 28.875 29.0321 28.875 29.7916C28.875 30.5512 28.2596 31.1666 27.5 31.1666C26.7404 31.1666 26.125 30.5512 26.125 29.7916C26.125 29.2854 25.7146 28.875 25.2084 28.875C24.7021 28.875 24.2917 29.2854 24.2917 29.7916C24.2962 31.2082 25.2267 32.4548 26.5834 32.8626V33.9166C26.5834 34.4229 26.9938 34.8333 27.5 34.8333C28.0063 34.8333 28.4167 34.4229 28.4167 33.9166V32.8626C29.9368 32.4024 30.8919 30.8999 30.6623 29.3279C30.4327 27.7564 29.088 26.5896 27.5 26.5833C26.7404 26.5833 26.125 25.9679 26.125 25.2083C26.125 24.4487 26.7404 23.8333 27.5 23.8333Z" fill="#FF9431"/>
<path d="M27.5 50.4166C26.9938 50.4166 26.5833 50.8271 26.5833 51.3333V54.0833C26.5833 54.5895 26.9938 55 27.5 55C28.0062 55 28.4166 54.5895 28.4166 54.0833V51.3333C28.4166 50.8271 28.0062 50.4166 27.5 50.4166Z" fill="#FF9431"/>
<path d="M27.5 44.9166C26.9938 44.9166 26.5833 45.3271 26.5833 45.8333V47.6666C26.5833 48.1729 26.9938 48.5833 27.5 48.5833C28.0062 48.5833 28.4166 48.1729 28.4166 47.6666V45.8333C28.4166 45.3271 28.0062 44.9166 27.5 44.9166Z" fill="#FF9431"/>
<path d="M27.5 4.58333C28.0062 4.58333 28.4166 4.1729 28.4166 3.66667V0.916667C28.4166 0.410437 28.0062 0 27.5 0C26.9938 0 26.5833 0.410437 26.5833 0.916667V3.66667C26.5833 4.1729 26.9938 4.58333 27.5 4.58333Z" fill="#FF9431"/>
<path d="M27.5 10.0833C28.0062 10.0833 28.4166 9.67286 28.4166 9.16663V7.33329C28.4166 6.82706 28.0062 6.41663 27.5 6.41663C26.9938 6.41663 26.5833 6.82706 26.5833 7.33329V9.16663C26.5833 9.67286 26.9938 10.0833 27.5 10.0833Z" fill="#FF9431"/>
<path d="M32.5416 36.2173C29.4183 38.0054 25.5816 38.0054 22.4583 36.2173C22.0232 35.99 21.4857 36.1457 21.2399 36.5709C20.9938 36.9961 21.1272 37.5399 21.5416 37.8036C25.2226 39.9551 29.7773 39.9551 33.4583 37.8036C33.8727 37.5399 34.0061 36.9961 33.76 36.5709C33.5142 36.1457 32.9767 35.99 32.5416 36.2173Z" fill="#FF9431"/>
<path d="M22.4583 18.7827C25.5816 16.9946 29.4183 16.9946 32.5416 18.7827C32.6813 18.8615 32.8393 18.9027 33 18.9018C33.3236 18.9018 33.6234 18.7308 33.7882 18.4524C33.9113 18.2424 33.9457 17.9917 33.884 17.7559C33.8222 17.5205 33.6691 17.319 33.4583 17.1964C29.7656 15.0887 25.2343 15.0887 21.5416 17.1964C21.1272 17.4601 20.9938 18.0039 21.2399 18.4291C21.4857 18.8543 22.0232 19.01 22.4583 18.7827Z" fill="#FF9431"/>
<path d="M33.9167 10.0833H37.5833V12.8333C37.5833 13.3395 37.9938 13.75 38.5 13.75C39.0062 13.75 39.4167 13.3395 39.4167 12.8333V9.16662C39.4167 8.66039 39.0062 8.24996 38.5 8.24996H36.309L43.0833 2.15424L49.8576 8.24996H47.6667C47.1604 8.24996 46.75 8.66039 46.75 9.16662V12.8333C46.75 13.3395 47.1604 13.75 47.6667 13.75C48.1729 13.75 48.5833 13.3395 48.5833 12.8333V10.0833H52.25C52.6278 10.0824 52.9666 9.84919 53.1026 9.49651C53.2387 9.14336 53.1442 8.74278 52.864 8.48806L43.6974 0.23806C43.3487 -0.0765863 42.8178 -0.0765863 42.4692 0.23806L33.3025 8.48806C33.0223 8.74278 32.9278 9.14336 33.0639 9.49651C33.2001 9.84919 33.5389 10.0824 33.9167 10.0833Z" fill="#FF9431"/>
<path d="M19.25 44.9167H15.5833V42.1667C15.5833 41.6605 15.1729 41.25 14.6666 41.25C14.1604 41.25 13.75 41.6605 13.75 42.1667V45.8334C13.75 46.3396 14.1604 46.75 14.6666 46.75H16.8576L10.0833 52.8458L3.30902 46.75H5.49997C6.0062 46.75 6.41664 46.3396 6.41664 45.8334V38.5C6.41664 37.9938 6.0062 37.5834 5.49997 37.5834C4.99374 37.5834 4.5833 37.9938 4.5833 38.5V44.9167H0.91664C0.538859 44.9176 0.200036 45.1508 0.0640256 45.5035C-0.0720993 45.8566 0.0224319 46.2572 0.302588 46.5119L9.46925 54.7619C9.81793 55.0766 10.3488 55.0766 10.6975 54.7619L19.8641 46.5119C20.1443 46.2572 20.2388 45.8566 20.1027 45.5035C19.9666 45.1508 19.6277 44.9176 19.25 44.9167Z" fill="#FF9431"/>
</g>
<defs>
<clipPath id="clip0_2113_325">
<rect width="55" height="55" fill="white"/>
</clipPath>
</defs>
</svg>
